# xmcd CD database file
#
# Track frame offsets:
#	150
#	11405
#	25313
#	37214
#	50247
#	58710
#	73888
#	85713
#	97596
#	112007
#	121432
#	133675
#	143906
#	152644
#	165679
#	177912
#	189729
#	203107
#	215876
#	225116
#	237862
#	250657
#	262000
#	276789
#	289617
#
# Disc length: 4003 seconds
#
# Revision: 0
# Processed by: cddbd v1.5.2PL0 Copyright (c) Steve Scherf et al.
# Submitted via: CDex 1.73
#
DISCID=6f0fa119
DTITLE=Peggy Lee - Blues Cross Country and If You Go - (2 LP's on 1 CD)
DYEAR=2012
DGENRE=Blues
TTITLE0=Kansas City
TTITLE1=Basin Street Blues
TTITLE2=Los Angeles Blues
TTITLE3=I Lost My Sugar In Salt Lake City
TTITLE4=The Grain Belt Blues
TTITLE5=New York City Blues
TTITLE6=Goin' To Chicago Blues
TTITLE7=San Fransisco Blues
TTITLE8=Fisherman's Wharf
TTITLE9=Boston Beans
TTITLE10=The Train Blues
TTITLE11=St. Louis Blues
TTITLE12=Hey! Look Me Over (Bonus Track)
TTITLE13=As Time Goes By
TTITLE14=If You Go
TTITLE15=Oh Love Hast Thou Forsaken Me
TTITLE16=Say It Isn't So
TTITLE17=I Wish I Didn't Love You So
TTITLE18=Maybe It's Because (I Love You Too Much)
TTITLE19=I'm Gonna Laugh You Out Of My Life
TTITLE20=I Get Along With You Very Well
TTITLE21=(I Love Your) Gypsy Heart
TTITLE22=When I Was A Child
TTITLE23=Here's That Rainy Day
TTITLE24=Smile
EXTD=YEAR: 2012
EXTT0=
EXTT1=
EXTT2=
EXTT3=
EXTT4=
EXTT5=
EXTT6=
EXTT7=
EXTT8=
EXTT9=
EXTT10=
EXTT11=
EXTT12=
EXTT13=
EXTT14=
EXTT15=
EXTT16=
EXTT17=
EXTT18=
EXTT19=
EXTT20=
EXTT21=
EXTT22=
EXTT23=
EXTT24=
PLAYORDER=
